<?xml version="1.0" encoding="UTF-8"?>
<svg xmlns="http://www.w3.org/2000/svg" version="1.1" viewBox="0 0 800.95 99.4">
  <defs>
    <style>
      .cls-1 {
        fill: #010101;
      }

      .cls-2 {
        fill: #231f20;
      }

      .cls-3 {
        fill: #db3527;
      }

      .cls-4 {
        fill: #db3227;
      }
    </style>
  </defs>
  <!-- Generator: Adobe Illustrator 28.6.0, SVG Export Plug-In . SVG Version: 1.1.0 Build 98)  -->
  <g>
    <g id="Layer_1">
      <g>
        <g>
          <polyline class="cls-3" points="43.56 56.18 70.3 76.89 48.36 76.89 24.12 56.32"/>
          <path class="cls-1" d="M19.06,76.89v-42.14h29.71s1.02,7.62-3.88,10.08c-2.64,1.33-5.71,1.28-12.53,1.19l-8.25,10.29s15.54.44,20.78-.27c7.1-.96,12.13-3.65,15.49-10.02,3.36-6.37,1.92-23.52,1.92-23.52H5.13v54.39h13.93Z"/>
        </g>
        <g>
          <path class="cls-1" d="M143.84,70.41h-13.15l-9.97-15.93h-.11v15.93h-10.56V28.99h15.79c8.03,0,14.12,3.9,14.12,12.75,0,5.71-3.13,10.66-8.89,11.7l12.77,16.98ZM120.62,47.56h1.02c3.45,0,7.33-.66,7.33-5.17s-3.88-5.16-7.33-5.16h-1.02v10.33Z"/>
          <path class="cls-1" d="M167.81,38.11v6.92h11.91v9.12h-11.91v7.14h12.55v9.12h-23.11V28.99h23.11v9.12h-12.55Z"/>
          <path class="cls-1" d="M214.51,54.15l9.86-25.16h11.48l-17.35,41.43h-8.19l-17.08-41.43h11.48l9.81,25.16Z"/>
          <path class="cls-1" d="M289.98,48.93c0,13.41-9.43,22.86-22.47,22.86s-22.47-9.45-22.47-22.86c0-12.53,10.77-21.32,22.47-21.32s22.47,8.79,22.47,21.32ZM256.04,48.99c0,7.14,5.17,12.36,11.48,12.36s11.48-5.22,11.48-12.36c0-5.71-5.17-10.93-11.48-10.93s-11.48,5.22-11.48,10.93Z"/>
          <path class="cls-1" d="M316.06,61.29h12.66v9.12h-23.22V28.99h10.56v32.31Z"/>
          <path class="cls-1" d="M377.37,28.99v23.3c0,5.33-.22,10.6-4.26,14.61-3.39,3.41-8.73,4.62-13.47,4.62s-10.07-1.21-13.47-4.62c-4.04-4.01-4.26-9.29-4.26-14.61v-23.3h10.56v21.81c0,5.38.38,11.26,7.17,11.26s7.17-5.88,7.17-11.26v-21.81h10.56Z"/>
          <path class="cls-1" d="M410.43,70.41h-10.56v-32.31h-8.73v-9.12h28.02v9.12h-8.73v32.31Z"/>
          <path class="cls-1" d="M443.58,70.41h-10.56V28.99h10.56v41.43Z"/>
          <path class="cls-1" d="M503.96,48.93c0,13.41-9.43,22.86-22.47,22.86s-22.47-9.45-22.47-22.86c0-12.53,10.77-21.32,22.47-21.32s22.47,8.79,22.47,21.32ZM470.02,48.99c0,7.14,5.17,12.36,11.48,12.36s11.48-5.22,11.48-12.36c0-5.71-5.17-10.93-11.48-10.93s-11.48,5.22-11.48,10.93Z"/>
          <path class="cls-1" d="M519.48,28.99h10.56l19.34,25.33h.11v-25.33h10.56v41.43h-10.56l-19.34-25.38h-.11v25.38h-10.56V28.99Z"/>
          <path class="cls-4" d="M583.01,28.99h16.16c8.73,0,14.76,4.12,14.76,13.63s-5.17,14.07-14.39,14.07h-5.98v13.74h-10.56V28.99ZM593.57,48h1.78c3.83,0,7.6,0,7.6-5.05s-3.5-5.27-7.6-5.27h-1.78v10.33Z"/>
          <path class="cls-4" d="M636.31,63.22l-2.8,7.2h-11.21l15.63-41.43h11.53l15.3,41.43h-11.26l-2.64-7.2h-14.55ZM643.69,41.79h-.11l-4.36,13.19h8.78l-4.31-13.19Z"/>
          <path class="cls-4" d="M712.19,70.41h-13.15l-9.97-15.93h-.11v15.93h-10.56V28.99h15.79c8.03,0,14.12,3.9,14.12,12.75,0,5.71-3.13,10.66-8.89,11.7l12.77,16.98ZM688.96,47.56h1.02c3.45,0,7.33-.66,7.33-5.17s-3.88-5.16-7.33-5.16h-1.02v10.33Z"/>
          <path class="cls-4" d="M741.24,70.41h-10.56v-32.31h-8.73v-9.12h28.02v9.12h-8.73v32.31Z"/>
          <path class="cls-4" d="M786.11,39.64c-1.94-1.65-4.42-2.75-7-2.75-1.94,0-4.52,1.15-4.52,3.46s2.86,3.35,4.69,3.96l2.69.82c5.66,1.7,10.02,4.61,10.02,11.32,0,4.12-.97,8.35-4.2,11.15-3.18,2.75-7.44,3.9-11.53,3.9-5.12,0-10.13-1.76-14.28-4.72l4.52-8.68c2.64,2.36,5.77,4.29,9.38,4.29,2.48,0,5.12-1.26,5.12-4.18s-4.15-4.06-6.41-4.72c-6.63-1.92-10.99-3.68-10.99-11.7s5.87-13.9,14.01-13.9c4.09,0,9.11,1.32,12.71,3.41l-4.2,8.35Z"/>
        </g>
        <path class="cls-2" d="M89.2,94.27c-.71,0-1.29-.58-1.29-1.29V6.42c0-.71.58-1.29,1.29-1.29s1.29.58,1.29,1.29v86.56c0,.71-.58,1.29-1.29,1.29Z"/>
      </g>
    </g>
  </g>
</svg>